<?xml version="1.0" standalone="no"?>
<svg version="1.1" id="Layer_1" xmlns="http://www.w3.org/2000/svg" xmlns:xlink="http://www.w3.org/1999/xlink" x="0px" y="0px" width="595.28px" height="595.28px" viewBox="0 0 595.28 595.28" enable-background="new 0 0 595.28 595.28" xml:space="preserve">
<path id="color_x5F_2" fill="#0052ff" d="M142.52,205.647c-0.034-0.555-0.083-1.55-0.095-2.732
	c0.271-4.304,1.457-8.231,5.312-10.746c2.044-0.795,4.504-1.426,6.811-2.016c0.673-0.172,1.334-0.341,1.968-0.511
	c1.774-0.473,3.415-0.728,4.785-0.866c2.165,0.125,4.213,0.667,5.905,1.835c1.363,0.94,2.601,2.03,3.821,3.145
	c-9.215,3.751-17.788,9.63-27.542,11.835C143.091,205.62,142.759,205.638,142.52,205.647z M148.792,216.115
	c1.873-0.83,3.712-1.737,5.542-2.665c0.208-0.542,0.991-0.894,1.709-0.871c0.488-0.25,0.977-0.5,1.465-0.748
	c8.075-4.103,16.634-7.476,25.187-10.601l4.042-1.617l-3.924-0.934c-1.406-0.18-2.825-0.278-4.227-0.333
	c-0.649,0.268-1.446,0.427-1.817,0.187c-0.102-0.065-0.196-0.14-0.296-0.207h-0.628l-10.557,5.608l-15.465,6.714l-1.979,0.417
	c-1.738,0.65-3.491,1.264-5.259,1.84l-1.372,1.257c-0.644,0.657-1.282,1.321-1.905,1.998c-0.647,0.703-1.34,1.4-1.915,2.167
	c2.51-0.066,7.018-0.416,10.768-1.951C148.37,216.286,148.583,216.208,148.792,216.115z M233.957,362.278
	c0.081,5.524,0.272,11.045,0.293,16.57c7.229-0.817,14.565-0.845,21.853-0.826c-5.13-2.281-10.347-4.727-14.666-8.148
	C238.698,367.705,236.463,364.798,233.957,362.278z M257.762,343.88c0.439-3.371-0.166-7.324-0.475-10.438
	c-0.457-4.601-0.754-10.412-3.207-14.485c-0.751-1.247-1.884-2.224-3.223-3.005c-6.798-2.965-17.723-3.387-23.327-3.387
	c-1.43,0-2.591,0.027-3.371,0.052c-0.242,3.674-1.087,7.552-3.378,10.188c13.468,2.913,23.343,11.939,34.503,19.456
	C256.103,342.812,256.936,343.34,257.762,343.88z M293.009,369.515c-12.256-9.239-25.954-16.146-38.654-24.699
	c-11.307-7.614-21.589-17.386-35.397-20.082c-0.142-0.028-0.26-0.066-0.366-0.11c-0.827,0.491-1.756,0.882-2.833,1.118
	c-0.679,0.149-1.381,0.239-2.083,0.274c-0.638,0.189-1.296,0.311-1.957,0.311c-0.806,0-1.568-0.361-2.257-0.882
	c-0.611-0.218-1.173-0.5-1.672-0.846c-0.303,0.148-0.624,0.246-0.892,0.244c-6.173-0.052-11.889-1.842-18-2.333
	c-1.958-0.157,0.001-1.754,1.121-1.664c5.536,0.445,10.792,1.948,16.313,2.263c-0.699-1.13-0.911-2.613-0.426-4.455
	c-2.232-0.806-2.741-2.139-2.355-3.654c-0.035-0.028-0.076-0.068-0.108-0.089c-0.227-0.151-0.366-0.382-0.401-0.668
	c-0.119-0.965,1.159-2.678,2.038-3.726l-1.6-0.246c-1.098,0-2.195,0-3.292,0c-0.563,0-0.619-0.347-0.178-0.63
	c-0.071-11.149-1.571-22.441-3.049-33.47c-0.897-6.692-1.873-13.396-3.296-20c-0.868-4.026-1.684-8.465-3.711-12.127l-5.11-0.705
	c5.787,9.756,7.122,21.043,6.065,32.285c-0.013,0.141-0.105,0.265-0.242,0.375c0.403,0.366-0.416,1.299-1.41,1.464
	c-5.046,0.837-9.698,3.243-14.723,4.125l-1.059,0.409l-1.9-0.042c-4.552,0.438-9.103,0.527-13.684,0.53
	c-1.113,0.001-0.936-0.521-0.381-0.971c-0.294-0.057-0.497-0.199-0.5-0.448c-0.062-5.369-0.565-11.146-2.026-16.336
	c-1.799-6.391-5.404-11.78-9.114-17.194l-3.634,1.53c4.211,6.103,9.19,12.883,9.841,20.471c0.033,0.379,0.043,0.758,0.067,1.138
	c0.042,0.229,0.065,0.377,0.07,0.413l0.011,0.075l-0.012,0.075l-0.026,0.173c0.293,6.256-0.527,12.501-0.611,18.76
	c-0.001,0.076-0.024,0.149-0.057,0.22c5.7,1.792,11.618,4.176,17.293,1.749c0.036-0.016,0.073-0.024,0.109-0.037
	c1.819-3.367,4.446-6.13,8.478-6.698c1.091-0.154,3.3-0.196,3.354,1.408c0.043,1.277-0.618,2.435-1.422,3.429
	c5.636-0.738,7.064,6.235,5.741,11.787c-0.859,3.601-2.911,6.565-6.686,7.431c-0.749,0.172-1.492,0.217-2.232,0.189
	c-0.418,0.154-0.906,0.239-1.464,0.239c-2.425,0-5.799-1.462-8.078-2.611c-0.645-0.113-1.292-0.185-1.943-0.182
	c-0.134,0-0.254-0.011-0.365-0.029c-5.246,2.037-10.476,4.247-15.843,5.959l-2.138,0.938c-4.424,14.222-1.257,34.184,14.324,40.153
	c10.707,4.102,23.619,3.587,34.916,3.404c5.422-0.088,10.843-0.268,16.266-0.335c2.946-0.037,5.912-0.125,8.856-0.004
	c1.833,0.075,5.063,0.836,6.608-0.415c0.311-0.251,1.012-0.389,1.616-0.385c0.291-0.055,0.551-0.066,0.719-0.004
	c1.181,0.434,2.239,1.012,3.222,1.681c0.565,0.012,1.043,0.242,1.061,0.781c2.265,1.791,4.149,4.059,6.197,6.216
	c3.992,4.207,8.732,7.06,13.966,9.528c6.376,3.007,12.614,5.665,19.076,7.765l13.229,3.154c0.085-0.205,0.319-0.384,0.623-0.523
	c0.019-0.053,0.033-0.105,0.063-0.162c2.516-4.885,4.105-10.138,5.958-15.292C293.02,369.52,293.014,369.518,293.009,369.515z"></path>
<path id="color_x5F_1" d="M164.764,220.516c-0.683-0.72-0.753-1.5-0.754-2.453c-0.001-0.888,2.897-1.332,2.897-0.776
	c0,0.8-0.003,1.6,0.58,2.214C168.001,220.044,165.306,221.087,164.764,220.516z M172.677,217.397
	c0.723,1.38,4.366,5.574,2.236,6.923c-1.651,1.045,0.915,1.247,1.759,0.712c3.688-2.334,0.327-5.695-1.097-8.411
	C175.098,215.71,172.304,216.686,172.677,217.397z M178.241,212.621c-0.242-0.712-3.111,0.148-2.897,0.776
	c0.326,0.958,0.776,1.823,1.333,2.667c0.487,0.738,3.151-0.392,2.897-0.776C179.017,214.443,178.567,213.579,178.241,212.621z
	 M174.62,210.911c0.218-0.218,0.438-0.434,0.667-0.642c0.041-0.037,0.116-0.1,0.184-0.155c0.547-0.095,1.305-0.421,1.437-0.955
	c0.164-0.657-0.886-0.639-1.249-0.615c-1.375,0.089-2.431,0.968-3.36,1.896c-0.42,0.419-0.355,0.892,0.273,1.019
	C173.218,211.591,174.141,211.389,174.62,210.911z M164.722,214.182c0.031-0.015,0.063-0.026,0.093-0.04
	c0.631,0.048,1.343-0.158,1.804-0.565c0.455-0.402,0.327-0.901-0.273-1.019c-1.463-0.288-2.835,0.422-4.062,1.132
	c-0.395,0.229-0.876,0.832-0.256,1.125c0.629,0.298,1.486,0.055,2.052-0.272C164.288,214.423,164.535,214.273,164.722,214.182z
	 M168.531,227.663c-0.281,0.13-0.217,0.138-0.452,0.081c-0.356-0.087-0.674-0.486-0.838-0.79c-0.321-0.595-1.079-0.581-1.666-0.423
	c-0.342,0.092-1.543,0.623-1.231,1.2c1.102,2.038,3.405,2.21,5.377,1.291c0.399-0.186,1.203-0.745,0.745-1.27
	C170.025,227.25,169.05,227.421,168.531,227.663z M157.929,376.625c20.667,0,41.333,0,62,0c1.251,0,3.019-1.899,1.059-1.899
	c-20.667,0-41.333,0-62,0C157.737,374.726,155.969,376.625,157.929,376.625z M217.272,385.351c-14,0-28,0-42,0
	c-1.604,0-2.266,1.983-0.294,1.983c14,0,28,0,42,0C218.583,387.334,219.245,385.351,217.272,385.351z M83.574,369.529
	c-12.844,2.474-24.906,11.512-30.477,23.404c-0.636,1.356,2.275,1.104,2.722,0.15c5.205-11.11,16.153-19.609,28.19-21.929
	C85.813,370.808,85.332,369.19,83.574,369.529z M113.615,373.654c-4.96-2.759-10.205-4.637-15.92-4.777
	c-1.062-0.026-3.099,1.55-1.14,1.598c5.307,0.131,10.157,2.003,14.746,4.556C112.104,375.476,114.782,374.304,113.615,373.654z
	 M379.574,366.196c-12.844,2.474-24.906,11.512-30.477,23.404c-0.636,1.356,2.275,1.104,2.722,0.15
	c5.205-11.11,16.153-19.609,28.19-21.929C381.813,367.475,381.332,365.857,379.574,366.196z M409.615,370.321
	c-4.96-2.759-10.205-4.637-15.92-4.777c-1.062-0.026-3.099,1.55-1.14,1.598c5.307,0.131,10.157,2.003,14.746,4.556
	C408.104,372.143,410.782,370.971,409.615,370.321z M553.887,405.419c-0.099,0.467-1.359,0.819-2.174,0.823
	c-0.314,0.131-0.632,0.22-0.859,0.22c-37.38,0-74.76,0-112.141,0c-0.753,0-0.869-0.202-0.681-0.449c-2.931,0-5.862,0-8.794,0
	c0.267,0.157,0.43,0.422,0.386,0.813c-2.432,21.951-19.43,38.732-42.167,37.501c-9.518-0.516-19.286-3.587-25.636-11.082
	c-6.334-7.477-8.919-16.768-9.01-26.45c-0.002-0.268,0.114-0.497,0.299-0.683l-0.015-0.1c-37.745,0-75.49,0-113.235,0
	c-36.869,0-73.737,0-110.606,0c0.267,0.157,0.43,0.422,0.386,0.813c-2.432,21.951-19.43,38.732-42.167,37.501
	c-9.518-0.516-19.286-3.587-25.636-11.082c-6.334-7.477-8.919-16.768-9.01-26.45c-0.003-0.318,0.162-0.582,0.41-0.782
	c-3.295,0-6.591,0-9.886,0c-0.713,0.568-2.668,0.73-2.64,0.374c0.014-0.175,0.041-0.343,0.057-0.517
	c-0.094-0.085-0.068-0.201,0.036-0.328c2.89-29.618,32.417-46.803,60.343-44.064c-0.001-0.004-0.004-0.007-0.005-0.012
	c-9.131-69.469-17.736-139.014-27.463-208.404c-0.101-0.717,1.603-1.044,2.056-1.046c14.363-0.063,28.713-0.882,43.081-0.615
	c30.857,0.574,60.484,7.07,88.369,20.477c25.185,12.108,48.132,28.431,68.267,47.786c40.287,38.727,73.749,88.337,89.546,142.238
	c7.416-3.566,15.579-5.52,23.629-5.388c0-41.203,0-82.406,0-123.609c0-20.801,0-41.602,0-62.403c0-4.795,0.394-5.828,5.189-6.481
	c3.472-0.474,7.105-0.254,10.583,0.066c1.446,0.133-1.269,1.231-1.882,1.175c-1.573-0.145-10.58-1.161-10.924,0.285
	c-0.996,4.18-0.068,9.698-0.068,14c0,4.566,0,9.132,0,13.697c0,18.125,0,36.25,0,54.375c0,36.344,0,72.688,0,109.031
	c3.605,0.273,7.155,0.889,10.602,1.831c0-64.14,0-128.28,0-192.42c0-0.825,2.897-1.24,2.897-0.776c0,64.69,0,129.38,0,194.07
	c3.649,1.207,7.162,2.771,10.477,4.658c0-20.729,0-41.458,0-62.187c0-0.873,1.872-1.405,2.613-0.888c2.296,0,4.591,0,6.887,0
	c0-20.704,0-41.408,0-62.112c0-0.873,1.872-1.405,2.613-0.888c4.962,0,9.925,0,14.887,0c0-14.314,0-28.629,0-42.943
	c0-0.873,1.873-1.406,2.614-0.889c22.737,0,45.475,0,68.211,0c0.713-0.296,1.664-0.293,1.976,0.208
	c0.006,0.009,0.014,0.018,0.019,0.027c0.055,0.099,0.094,0.209,0.094,0.347c0,14.417,0,28.833,0,43.25c3.804,0,7.608,0,11.412,0
	c0.711-0.295,1.662-0.293,1.975,0.206c0.006,0.01,0.014,0.019,0.02,0.029c0.054,0.099,0.093,0.21,0.093,0.348
	c0,20.806,0,41.611,0,62.417c1.304,0,2.608,0,3.912,0c0.711-0.295,1.662-0.293,1.975,0.206c0.006,0.01,0.014,0.019,0.02,0.029
	c0.054,0.099,0.093,0.21,0.093,0.348c0,30,0,60,0,90c0,0.209-0.109,0.399-0.284,0.56c6.256,0.002,12.512,0.004,18.768,0.004
	c0.121,0,0.47,0.02,0.508,0.201C554.845,396.696,554.823,401.017,553.887,405.419z M445.415,237.94c22.362,0,44.725,0,67.087,0
	c0-14.12,0-28.241,0-42.361c-22.362,0-44.725,0-67.087,0C445.415,209.7,445.415,223.82,445.415,237.94z M427.915,300.94
	c32.696,0,65.392,0,98.087,0c0-20.509,0-41.02,0-61.529c-27.333,0-54.667,0-82,0c-0.272,0.045-0.544,0.048-0.782,0
	c-5.102,0-10.203,0-15.305,0C427.915,259.92,427.915,280.43,427.915,300.94z M417.731,365.35
	c9.885,6.23,17.774,15.398,21.922,26.366c30.796,0.293,61.595,0.354,92.393,0.365c-0.026-0.076-0.044-0.159-0.044-0.253
	c0-29.806,0-59.612,0-89.417c-34.971,0-69.941,0-104.912,0c-0.599,0.249-1.371,0.291-1.788,0c-2.296,0-4.591,0-6.887,0
	c0,20.704,0,41.408,0,62.112C418.415,364.865,418.126,365.155,417.731,365.35z M104.04,360.69c0.056,0.427-0.63,0.793-1.349,0.97
	c0.089,0.011,0.178,0.02,0.267,0.032c0.508-0.321,1.179-0.545,1.627-0.443c2.83,0.64,5.564,1.499,8.19,2.545
	c-5.383-40.736-10.708-81.48-16.06-122.221c-0.314-0.195-0.326-0.578-0.125-0.955c-3.396-25.854-6.801-51.707-10.247-77.554
	c-0.066-0.495,1.368-0.933,2.243-0.967c0.224-0.403,0.76-0.827,1.391-0.94c17.543-3.138,35.55-3.856,53.262-1.726
	c49.214,5.919,94.497,30.998,128.796,66.354c4.708,4.854,9.269,9.854,13.58,15.066c3.898,4.713,7.226,10.617,11.52,14.911
	c10.395,10.395,17.859,23.581,25.123,36.326c9.756,17.118,18.106,34.904,24.847,53.334c0.639-0.003,1.086,0.17,0.703,0.593
	c-0.116,0.128-0.236,0.253-0.353,0.381c2.62,7.234,4.992,14.568,7.101,22c2.428-1.908,5.024-3.615,7.744-5.106
	c-0.009-0.017-0.023-0.031-0.028-0.05c-2.417-8.316-5.2-16.529-8.456-24.557c-11.069-27.296-26.319-52.756-44.129-76.175
	c-17.039-22.405-36.32-43.257-58.585-60.572c-23.404-18.201-49.82-32.867-78.364-41.219c-15.702-4.594-31.715-7.185-48.066-7.795
	c-15.998-0.597-31.961,0.248-47.953,0.389C86.387,222.36,94.954,291.562,104.04,360.69z M142.07,395.696
	c0.292-0.092,0.545-0.154,0.675-0.153c31.486,0.12,62.972,0.179,94.458,0.183c-6.238-1.375-4.081-9.413-4.801-14.303
	c-0.025-0.173,0.107-0.338,0.321-0.483c-0.138,0.017-0.277,0.028-0.415,0.046c-1.379,0.18-1.435-0.737-0.826-1.38
	c-0.091-0.118-0.147-0.265-0.148-0.449c-0.018-4.944-0.179-9.887-0.271-14.83c-0.377,0.132-0.728,0.228-0.889,0.228
	c-38.1,0-76.199,0-114.299,0c0.027,0.208,0.055,0.417,0.082,0.626C128.635,371.224,138.248,382.03,142.07,395.696z M344.461,346.706
	c-2.217-6.166-4.614-12.269-7.228-18.28c-5.935-13.649-12.709-26.927-20.308-39.727c-3.958-6.668-8.068-13.247-12.372-19.698
	c-3.859-5.785-8.744-10.357-12.888-15.891c-15.737-21.017-34.515-39.931-56.057-55.013c-42.54-29.784-94.354-44.473-146.002-35.236
	c-0.105,0.019-0.197,0.028-0.286,0.036c3.401,25.518,6.763,51.04,10.116,76.564c6.778-0.901,13.633-0.389,19.064,4.247
	c4.626,3.948,6.978,10.125,8.916,15.802c0.432-0.796,0.884-1.583,1.389-2.346c5.315-8.021,17.433-12.401,26.083-15.37
	c0.525-0.18,0.915-0.131,1.18,0.021c0.115-1.749,0.366-3.487,0.581-5.228c-0.051,0.005-0.097,0.006-0.133,0.003
	c-7.905-0.672-15.148-8.729-15.839-16.526c-0.001-0.017,0.006-0.033,0.007-0.049c-2.157,0.354-4.313,0.39-6.411-0.092
	c-0.142-0.032-0.345-0.155-0.247-0.335c0.059-0.107,0.131-0.208,0.193-0.314l-0.059-0.003l0.138-0.127
	c1.26-2.069,3.212-3.87,5.013-5.583c-0.267-0.208-0.094-0.615,0.574-0.929c-0.124-0.051-0.206-0.126-0.209-0.233
	c-0.063-1.594-0.116-3.158-0.12-4.674c-0.137-0.177-0.125-0.427,0.003-0.682c0.037-4.502,0.583-8.566,2.746-11.78
	c0.094-0.245,0.196-0.474,0.31-0.678c0.492-0.885,1.363-1.627,2.474-2.268c1.402-1.075,3.142-1.982,5.309-2.688
	c4.083-1.33,10.828-3.438,15.16-2.209c4.714,1.336,7.934,5.303,11.652,8.376c0.725-0.02,1.325,0.158,0.761,0.609
	c0.293,0.227,0.591,0.446,0.893,0.657c3.873,0.082,8.115,0.387,11.779,1.7c0.767,0.275-0.394,0.847-0.674,0.946
	c-3.236,1.151-6.458,2.342-9.663,3.575c5.203,5.211,9.463,15.274,7.389,22.536c-2.032,7.11-13.993,8.616-14.145,15.74
	c18.742-4.46,37.53,6.779,51.255,18.557c0.11,0.095,0.142,0.199,0.124,0.307c1.038-0.54,3.146-0.22,2.055,0.938
	c-0.213,0.226-0.424,0.454-0.637,0.681c2.235,1.298,4.467,1.642,6.934,2.533c2.317,0.837,4.571,2.957,6.339,4.628
	c3.643,3.443,5.186,7.006,3.702,11.979c-3.435,11.506-10.811,20.852-18.453,29.87c5.028-0.533,10.288-0.272,15.27,0.376
	c4.727,0.616,12.917,1.344,16.051,5.573c3.119,4.208,3.553,10.63,3.995,15.665c0.26,2.96,0.826,6.552,0.575,9.796
	c0.07,1.187,0.105,2.041,0.119,2.437l9.373,6.759c8.382,5.052,16.794,10.05,24.647,15.933c0.833-0.047,1.623,0.366,1.286,1.281
	c-0.189,0.513-0.372,1.027-0.555,1.542c0.035-0.005,0.07-0.01,0.098-0.01c3.893-0.032,7.914-0.135,11.679-1.246
	c2.654-0.783,5.102-2.064,7.732-2.872c2.271-0.697,5.097-1.497,7.482-0.848c1.322,0.36,2.18,0.861,2.684,1.459
	C331.719,360.195,338.219,353.563,344.461,346.706z M251.384,379.984c-5.372,0.019-10.755,0.137-16.084,0.665
	c0.698,4.749-1.75,14.843,6.176,13.971c7.357-0.809,14.323-1.068,21.728-0.453c2.206,0.183,12.047,1.269,7.54-3.111
	c-2.367-2.3-5.318-3.758-8.429-4.812c-4.476-1.515-7.423-2.689-10.886-6.069C251.371,380.119,251.361,380.054,251.384,379.984z
	 M137.314,345.182c2.732-0.76,5.557-1.177,8.303-1.246c-2.667-4.987-3.957-10.853-4.033-16.713c-0.236-1.05-0.351-1.613-0.354-1.632
	l-0.025-0.126l0.46-1.463c0.205-3.288,0.789-6.518,1.716-9.537c-1.747,0.425-3.514,0.773-5.304,1.031
	C139.558,325.482,143.295,337.447,137.314,345.182z M119.898,290.181c1.934-1.154,4.108-1.96,6.36-2.31
	c6.923-1.074,14.387-0.06,21.197,1.402c0.319,0.068,0.64,0.149,0.961,0.229l0.424-2.782c0.349-5.465,1.073-11.031,0.339-16.41
	c-1.024-7.516-5.285-13.766-9.486-19.883c-4.358,2.666-8.119,6.03-10.186,10.445C125.147,270.186,122.178,280.173,119.898,290.181z
	 M156.812,235.168c0.014-0.135,0.027-0.271,0.041-0.406l-0.171,0.371C156.725,235.144,156.768,235.159,156.812,235.168z
	 M183.878,228.441c3.903-7.111-0.947-18.734-6.321-24.078l-0.652,0.261c-0.143,0.065-11.063,5.042-19.594,8.848
	c1.341,3.324,1.851,6.194,1.287,9.781c-0.186,1.182-2.339,1.597-2.847,0.757c-1.445,0.655-1.878,2.899-1.463,4.257
	c0.044,0.146,0.106,0.29,0.166,0.433c0.479,0.816,1.096,1.507,1.688,2.048c0.564,0.345,1.216,0.525,1.927,0.423
	c0.475-0.068,0.755-0.058,0.9-0.001c0.523,0.008,0.945,0.198,0.937,0.655c-0.064,3.688-0.937,7.312-1,11
	c-0.003,0.191-0.129,0.368-0.322,0.521c2.02,3.867,11.846,4.863,12.416,0.144c0.001-0.01,0.007-0.02,0.008-0.03
	c-0.189-0.076-0.315-0.204-0.332-0.395C169.937,234.619,180.579,234.451,183.878,228.441z M142.425,202.915
	c0.012,1.182,0.062,2.177,0.095,2.732c0.239-0.009,0.571-0.027,0.965-0.056c9.754-2.205,18.326-8.083,27.542-11.835
	c-1.22-1.114-2.458-2.205-3.821-3.145c-1.692-1.168-3.741-1.71-5.905-1.835c-1.371,0.139-3.011,0.394-4.785,0.866
	c-0.634,0.169-1.294,0.338-1.968,0.511c-2.307,0.59-4.767,1.221-6.811,2.016C143.882,194.684,142.696,198.611,142.425,202.915z
	 M148.792,216.115c1.873-0.83,3.712-1.737,5.542-2.665c0.208-0.542,0.991-0.894,1.709-0.871c0.488-0.25,0.977-0.5,1.465-0.748
	c8.075-4.103,16.634-7.476,25.187-10.601l4.042-1.617l-3.924-0.934c-1.406-0.18-2.825-0.278-4.227-0.333
	c-0.649,0.268-1.446,0.427-1.817,0.187c-0.102-0.065-0.196-0.14-0.296-0.207h-0.628l-10.557,5.608l-15.465,6.714l-1.979,0.417
	c-1.738,0.65-3.491,1.264-5.259,1.84l-1.372,1.257c-0.644,0.657-1.282,1.321-1.905,1.998c-0.647,0.703-1.34,1.4-1.915,2.167
	c2.51-0.066,7.018-0.416,10.768-1.951C148.37,216.286,148.583,216.208,148.792,216.115z M174.517,196.863
	c-0.692-0.569-1.363-1.163-2.026-1.768c-3.227,1.292-6.366,2.81-9.492,4.358c-2.935,1.492-5.939,3.033-8.045,4.148
	c-1.941,1.028-4.015,1.704-5.924,2.157c-2.155,0.766-4.358,1.4-6.627,1.855c0.047,1.324,0.119,2.649,0.17,3.948l0.578-0.53
	l3.443-0.725C156.29,206.717,165.524,201.963,174.517,196.863z M152.946,244.405c3.611,13.296,30.164,6.836,25.189-1.748
	c-0.071-0.123-0.104-0.243-0.121-0.36c-1.369,0.135-2.737,0.35-4.104,0.666c0.014,0.07,0.017,0.147,0.006,0.232
	c-0.868,7.186-16.928,6.982-18.481,0.326c-0.028,0.011-0.045,0.027-0.074,0.037C154.577,243.828,153.766,244.113,152.946,244.405z
	 M200.549,280.699c1.21,9.363,2.306,18.851,2.359,28.255c0,0.044-0.012,0.086-0.025,0.128c1.597,0,3.193,0,4.79,0
	c0.887-0.932,1.72-1.758,2.272-2.382c0.219-0.248,0.631-0.409,1.064-0.478c3.013-6.196,3.042-12.41,3.585-19.185
	c0.043-0.535,0.1-1.055,0.164-1.568c-0.393,0.092-0.801,0.12-1.139-0.005c-1.082-0.396-2.264-0.648-3.29-1.181
	c-0.333-0.172-0.634-0.369-0.924-0.578c-0.078,0.14-0.165,0.273-0.241,0.414c-0.366,0.673-1.518,1.061-2.228,0.789
	C204.363,283.926,202.21,282.667,200.549,280.699z M220.781,322.805c13.468,2.913,23.343,11.939,34.503,19.456
	c0.819,0.551,1.652,1.08,2.478,1.62c0.439-3.371-0.166-7.324-0.475-10.438c-0.457-4.601-0.754-10.412-3.207-14.485
	c-0.751-1.247-1.884-2.224-3.223-3.005c-6.798-2.965-17.723-3.387-23.327-3.387c-1.43,0-2.591,0.027-3.371,0.052
	C223.917,316.291,223.071,320.168,220.781,322.805z M234.25,378.849c7.229-0.817,14.565-0.845,21.853-0.826
	c-5.13-2.281-10.347-4.727-14.666-8.148c-2.739-2.17-4.974-5.077-7.48-7.596C234.038,367.802,234.229,373.324,234.25,378.849z
	 M273.151,382.346l13.229,3.154c0.085-0.205,0.319-0.384,0.623-0.523c0.019-0.053,0.033-0.105,0.063-0.162
	c2.516-4.885,4.105-10.138,5.958-15.292c-0.004-0.003-0.01-0.005-0.015-0.008c-12.256-9.239-25.954-16.146-38.654-24.699
	c-11.307-7.614-21.589-17.386-35.397-20.082c-0.142-0.028-0.26-0.066-0.366-0.11c-0.827,0.491-1.756,0.882-2.833,1.118
	c-0.679,0.149-1.381,0.239-2.083,0.274c-0.638,0.189-1.296,0.311-1.957,0.311c-0.806,0-1.568-0.361-2.257-0.882
	c-0.611-0.218-1.173-0.5-1.672-0.846c-0.303,0.148-0.624,0.246-0.892,0.244c-6.173-0.052-11.889-1.842-18-2.333
	c-1.958-0.157,0.001-1.754,1.121-1.664c5.536,0.445,10.792,1.948,16.313,2.263c-0.699-1.13-0.911-2.613-0.426-4.455
	c-2.232-0.806-2.741-2.139-2.355-3.654c-0.035-0.028-0.076-0.068-0.108-0.089c-0.227-0.151-0.366-0.382-0.401-0.668
	c-0.119-0.965,1.159-2.678,2.038-3.726l-1.6-0.246c-1.098,0-2.195,0-3.292,0c-0.563,0-0.619-0.347-0.178-0.63
	c-0.071-11.149-1.571-22.441-3.049-33.47c-0.897-6.692-1.873-13.396-3.296-20c-0.868-4.026-1.684-8.465-3.711-12.127l-5.11-0.705
	c5.787,9.756,7.122,21.043,6.065,32.285c-0.013,0.141-0.105,0.265-0.242,0.375c0.403,0.366-0.416,1.299-1.41,1.464
	c-5.046,0.837-9.698,3.243-14.723,4.125l-1.059,0.409l-1.9-0.042c-4.552,0.438-9.103,0.527-13.684,0.53
	c-1.113,0.001-0.936-0.521-0.381-0.971c-0.294-0.057-0.497-0.199-0.5-0.448c-0.062-5.369-0.565-11.146-2.026-16.336
	c-1.799-6.391-5.404-11.78-9.114-17.194l-3.634,1.53c4.211,6.103,9.19,12.883,9.841,20.471c0.033,0.379,0.043,0.758,0.067,1.138
	c0.042,0.229,0.065,0.377,0.07,0.413l0.011,0.075l-0.012,0.075l-0.026,0.173c0.293,6.256-0.527,12.501-0.611,18.76
	c-0.001,0.076-0.024,0.149-0.057,0.22c5.7,1.792,11.618,4.176,17.293,1.749c0.036-0.016,0.073-0.024,0.109-0.037
	c1.819-3.367,4.446-6.13,8.478-6.698c1.091-0.154,3.3-0.196,3.354,1.408c0.043,1.277-0.618,2.435-1.422,3.429
	c5.636-0.738,7.064,6.235,5.741,11.787c-0.859,3.601-2.911,6.565-6.686,7.431c-0.749,0.172-1.492,0.217-2.232,0.189
	c-0.418,0.154-0.906,0.239-1.464,0.239c-2.425,0-5.799-1.462-8.078-2.611c-0.645-0.113-1.292-0.185-1.943-0.182
	c-0.134,0-0.254-0.011-0.365-0.029c-5.246,2.037-10.476,4.247-15.843,5.959l-2.138,0.938c-4.424,14.222-1.257,34.184,14.324,40.153
	c10.707,4.102,23.619,3.587,34.916,3.404c5.422-0.088,10.843-0.268,16.266-0.335c2.946-0.037,5.912-0.125,8.856-0.004
	c1.833,0.075,5.063,0.836,6.608-0.415c0.311-0.251,1.012-0.389,1.616-0.385c0.291-0.055,0.551-0.066,0.719-0.004
	c1.181,0.434,2.239,1.012,3.222,1.681c0.565,0.012,1.043,0.242,1.061,0.781c2.265,1.791,4.149,4.059,6.197,6.216
	c3.992,4.207,8.732,7.06,13.966,9.528C260.452,377.588,266.69,380.246,273.151,382.346z M239.99,283.198
	c2.055-6.886,0.073-10.522-5.334-14.859c-3.055-2.451-6.591-3.008-9.87-4.63c-5.133,5.52-10.13,11.279-14.053,17.714
	c0.674,0.74,1.416,1.43,2.36,1.804c0.625,0.248,1.264,0.455,1.902,0.664c0.773-4.246,2.509-7.728,6.155-10.713
	c0.627-0.513,3.525-0.688,2.284,0.328c-5.07,4.151-5.829,9.577-6.096,15.747c-0.264,6.094-0.909,11.727-3.771,17.213
	c-0.155,0.297-0.61,0.521-1.115,0.657c-0.04,0.063-0.084,0.126-0.145,0.195c-1.728,1.954-9.565,8.303-3.98,9.833
	c0.397,0.109,0.563,0.278,0.581,0.467c0.014,0.057,0.018,0.118-0.005,0.191c-0.592,1.871-0.738,4.118,1.007,5.46
	c1.252,0.963,3.034,1.508,4.688,1.334c1.357-0.632,2.509-1.538,3.102-2.131c0.487-0.487,2.011-3.792,3.398-6.987
	c0.188-1.504,0.235-3.02,0.245-4.422c0.004-0.657,1.123-1.102,1.968-1.156C230.089,301.907,236.963,293.339,239.99,283.198z
	 M224.197,261.088c-0.691,0.333-1.673,0.502-2.086,0.147c-7.992-6.857-18.093-13.931-28.854-17.217
	c1.739,3.501,2.522,7.628,3.303,11.374c1.378,6.616,2.417,13.301,3.296,20c0.076,0.58,0.152,1.164,0.229,1.745
	c0.666-0.242,1.443-0.221,1.708,0.263c1.312,2.402,3.115,3.965,5.446,5.094c4.22-7.307,9.832-13.771,15.581-19.934
	c-0.018-0.012-0.036-0.022-0.054-0.035c-0.263-0.185,0.221-0.559,0.865-0.831C223.82,261.492,224.008,261.289,224.197,261.088z
	 M188.444,242.823c-1.39-0.264-2.786-0.464-4.188-0.578L188.444,242.823z M148.389,246.135c3.447,5.003,7.369,10.271,9.034,16.19
	c1.63,5.79,2.415,11.954,2.484,17.962c0.002,0.144-0.042,0.278-0.12,0.402l6.813,0.152c3.742-0.097,7.475-0.443,11.015-1.519
	l9.97-3.853l0.73-7.449c-0.201-8.574-2.117-16.939-6.673-24.39c1.906,10.613-27.168,16.613-31.52,1.817
	C149.547,245.669,148.969,245.899,148.389,246.135z M115.321,303.303c2.445,9.927,10.95,11.773,20.436,10.517
	c0.485-0.279,1.104-0.38,1.557-0.229c9.789-1.616,20.315-6.194,26.166-8.453c0.25-0.096,0.502-0.128,0.742-0.118l0.201-0.088
	l0.082,0.049c0.129-0.031,0.264-0.054,0.411-0.054c3.991-0.018,9.968,3.224,13.792,1.994c1.322-1.09,2.396-2.309,2.923-2.948
	c0.128-0.328,0.244-0.681,0.341-1.071l0.566-6.038c-0.111-1.881-0.579-3.569-1.728-4.211l-0.463-0.189
	c-0.664-0.184-1.505-0.082-2.572,0.423c-1.148,0.543-2.352-0.288-2.029-1.085c-0.086-0.076-0.095-0.188,0.068-0.356
	c0.853-0.884,1.809-2.022,2.014-3.286c0.05-0.306,0.035-0.575-0.032-0.803c-1.142,0.063-2.344,0.211-2.807,0.272
	c-0.408,0.515-1.704,2.138-2.936,3.538c-0.423,0.733-0.821,1.48-1.163,2.259c-0.146,0.331-0.763,0.564-1.389,0.68
	c-1.04,0.398-2.07,0.681-3.091,0.856c-0.991,0.381-1.791,0.648-1.864,0.673l-0.131,0.044l-2.227-0.497
	c-5.793-0.362-11.433-3.076-17.405-4.016c-6.426-1.01-13.651-2.781-20.055-0.812C119.582,291.936,113.84,297.291,115.321,303.303z
	 M122.568,363.136c-0.011,0.115-0.073,0.225-0.17,0.327c36.218,0,72.436,0,108.653,0c-0.004-0.265-0.005-0.53-0.009-0.795
	l-0.142-2.877l-1.98-1.132h-2.025c-2.285,0.634-4.73,0.216-7.331,0.181c-7.167-0.097-14.327,0.136-21.492,0.275
	c-5.416,0.105-11.078,0.287-16.735,0.137l-4.61,0.074c-1.118-0.056-26.52-1.49-30.427-14.187c-0.074-0.124-0.146-0.25-0.218-0.375
	c-0.433,0.334-1.105,0.645-1.542,0.654c-3.148,0.069-6.28,0.693-9.158,1.815c-1.323,1.154-2.944,2.175-4.931,3.03
	c-0.252,0.109-0.506,0.147-0.747,0.142C125.813,353.4,123.071,357.684,122.568,363.136z M289.739,385.372
	c2.852,2.092,5.279,4.658,8.084,6.805c0.039,0.03,1.853,1.439,2.643,1.963c6.315-8.667,14.495-16.346,21.807-24.071
	c0.296-0.313,0.597-0.622,0.894-0.935c-0.06-0.371-0.203-0.731-0.464-1.074c-3.044-3.987-9.32,0.162-13.153,1.471
	c-4.626,1.581-9.486,1.974-14.337,2.064c-1.612,4.608-3.118,9.255-5.359,13.608C289.821,385.264,289.78,385.318,289.739,385.372z
	 M99.69,241.386c5.356,40.779,10.686,81.561,16.075,122.336c0.412-0.149,0.804-0.259,0.979-0.259c0.983,0,1.966,0,2.949,0
	c0.598-6.185,3.98-10.892,8.631-14.137c0.006-0.326,0.24-0.662,0.808-0.906c13.615-5.855,7.634-21.342,5.986-32.594
	c-7.933,0.644-18.516-0.524-21.849-9.085c-2.135-5.484-0.188-10.713,3.632-14.305c-0.196-0.129-0.3-0.33-0.236-0.622
	c1.472-6.644,3.168-13.045,5.552-19.417c1.255-3.355,2.354-6.782,3.802-10.047c-0.466-0.025-0.871-0.21-1.01-0.621
	c-1.871-5.539-3.919-11.8-8.273-15.942C111.959,241.243,105.879,240.646,99.69,241.386z M241.231,395.729
	c7.653,0,15.306-0.016,22.959-0.023c-3.42-0.221-6.848-0.7-10.257-0.776c-4.11-0.092-8.093,0.081-12.155,0.72
	C241.602,395.677,241.415,395.703,241.231,395.729z M270.012,395.699c9.786-0.012,19.571-0.024,29.357-0.047
	c0.01-0.014,0.021-0.028,0.03-0.042c-4.162-0.406-8.472-5.844-11.606-8.602c-2.219,1.153-6.183-0.383-8.25-0.836
	c-5.875-1.289-11.639-3-17.167-5.373l-3.407-0.813c-1.313-0.001-2.628-0.003-3.946-0.005c2.586,2.326,4.935,3.516,8.408,4.692
	c3.398,1.15,7.646,2.523,10.04,5.384C276.218,393.342,273.416,395.328,270.012,395.699z M302.077,395.644
	c11.67-0.029,23.34-0.062,35.01-0.107c1.938-9.747,7.456-18.379,14.953-25.034c-2.038-7.301-4.305-14.539-6.82-21.69
	c-6.377,6.904-12.968,13.62-19.444,20.43c-0.801,3.368-6.372,7.688-8.194,9.287c-4.394,3.855-8.145,7.917-11.692,12.564
	c-0.955,1.25-1.829,2.618-3.076,3.535C302.57,394.967,302.315,395.301,302.077,395.644z M107.217,406.013c-10.13,0-20.26,0-30.391,0
	l0.036,0.286c0.223,0.048,0.379,0.145,0.401,0.311c2.244,16.681,24.194,16.147,27.872,0.44c0.118-0.503,1.195-0.869,2-0.898
	L107.217,406.013z M140.808,404.671c-0.06-0.078-0.104-0.167-0.116-0.278c-2.25-20.988-17.452-36.782-37.833-41.393
	c-0.295-0.067-0.462-0.172-0.542-0.296c-0.421,0.145-0.825,0.238-1.046,0.207c-27.098-3.836-54.743,13.634-57.561,41.759
	c3.234,0,6.468,0,9.703,0l-0.026-0.179l6.256,0.179C86.698,404.671,113.752,404.671,140.808,404.671z M336.343,404.671
	c-0.103-2.752,0.093-5.441,0.538-8.058c-64.855,0.261-129.711,0.259-194.567,0.017c0.583,2.258,1.018,4.586,1.275,6.987
	c0.048,0.443-0.295,0.812-0.758,1.054c33.161,0,66.321,0,99.481,0C273.656,404.671,304.999,404.671,336.343,404.671z
	 M406.703,406.013c-10.13,0-20.26,0-30.391,0l0.032,0.257c0.48-0.028,0.868,0.067,0.905,0.339
	c2.244,16.681,24.194,16.147,27.872,0.44c0.093-0.396,0.782-0.707,1.464-0.836L406.703,406.013z M439.669,404.671
	c-0.438-4.103-1.392-8.044-2.771-11.784c-0.231-0.002-0.462-0.003-0.693-0.005c-0.809-0.008-0.287-0.389,0.425-0.715
	c-6.933-17.927-23.942-30.979-43.472-33.667c-13.671-1.882-27.966,3.007-38.408,12.004c-0.059,0.061-0.126,0.118-0.202,0.172
	c-7.459,6.497-12.905,15.104-14.69,24.852c0.138,0,0.275-0.001,0.413-0.001c0.801-0.003,0.202,0.365-0.543,0.673
	c-0.415,2.517-0.59,5.106-0.487,7.754c0.011,0.281-0.2,0.525-0.509,0.717c4.722,0,9.444,0,14.166,0l-0.026-0.179l6.256,0.179
	C385.975,404.671,412.822,404.671,439.669,404.671z M551.189,405.124c0.56-2.915,0.811-5.958,0.383-8.904
	c-0.508-3.492-2.995-2.956-5.858-2.956c-5.181,0-10.362,0-15.543-0.002c-10.43-0.004-20.859-0.012-31.289-0.034
	c-19.6-0.042-39.199-0.137-58.798-0.316c1.229,3.518,2.085,7.207,2.49,11.043c0.038,0.363-0.318,0.674-0.791,0.886
	c0.062,0.078,0.042,0.176-0.04,0.284C478.226,405.124,514.707,405.124,551.189,405.124z" fill="#000000"></path>
</svg>